<svg height="512" viewBox="0 0 512 512" width="512" xmlns="http://www.w3.org/2000/svg"><g id="Fill_out_line" data-name="Fill out line"><path d="m264 344h32l64 88h-120.444z" fill="#eb352f"/><path d="m136 416-40-8-72-152 176 128z" fill="#c7161f"/><path d="m176 488v-264h48v232z" fill="#c7161f"/><path d="m224 224v264l40-144z" fill="#f24b3f"/><path d="m296 344 80-320-40.662 374.09z" fill="#f24b3f"/><path d="m488 280-104 128-24 24-8 56-56-24 8-32z" fill="#b50912"/><path d="m488 280-184 152-8 32-72 24 26.67-96z" fill="#c7161f"/><path d="m136 416 40 72v-136z" fill="#eb352f"/><path d="m176 224-24 72 72-72z" fill="#f24b3f"/><path d="m224 288-72 8 72-72z" fill="#eb352f"/><path d="m494.29688 275.06543a8.0019 8.0019 0 0 0 -9.71094-2.30029l-134.47705 63.46264 33.84423-311.36352a7.99979 7.99979 0 0 0 -15.71386-2.80469l-78.48511 313.94043h-19.98779l-38.17652-114.52979-.022.00727c-.05981-.17963-.104-.36218-.17725-.539a8 8 0 0 0 -7.39059-4.93848h-48a8.00071 8.00071 0 0 0 -7.58984 5.47021l-24 72a7.97064 7.97064 0 0 0 8.47314 10.47608l.00049.00488 15.11621-1.67956v47.43347l-.48584.77734-138.80908-100.95215a7.99968 7.99968 0 0 0 -11.93457 9.89453l72 152a7.99826 7.99826 0 0 0 5.66015 4.41993l36.37281 7.27465 38.20337 68.76587.01171-.00634a7.98252 7.98252 0 0 0 11.41895 2.77734l35.5625-23.70825v17.052a7.99253 7.99253 0 0 0 10.52954 7.58716l.00073.0022.03-.01.01587-.00538 69.06836-23.0227 53.2041 22.80176a8.0006 8.0006 0 0 0 11.07129-6.22168l7.62211-53.36036 22.11524-22.11426a8.09069 8.09069 0 0 0 .55175-.61182l104-128a8.00023 8.00023 0 0 0 .08789-9.97949zm-204.99244 182.73364-53.573 17.85767 9.90479-35.65674h48.11792zm-73.30444-176.95947-42.21631 4.69067 42.21631-42.21627zm75.92578 71.1604 6.32739 8.69971-35.2041 16.61364 7.0315-25.31335zm-41.84521 72 7.3125-26.32544 176.33105-83.21411-132.60058 109.53955zm83.064-79.76636-20.1626 9.51526-8.31497-11.43323 50.752-203.00805zm-101.14457 85.07593v-156.01025l23.6377 70.91308zm-50.23438-197.30957h22.9209l-34.38086 34.38037zm-137.11328 48.91211 114.36133 83.17114-26.86719 42.98743-30.63671-6.12732zm123.34766 98.98242v77.23279l-22.71582-40.88806zm16 93.15723v-172.55786l32-3.55567v154.78052zm161.55664 3.48291-40.14331-17.2041 4.83276-19.33057h40.52954zm32.49512-73.8999-21.36576 21.36523h-30.44088l104.7666-86.54639z"/></g></svg>